<?xml version="1.0" encoding="iso-8859-1"?>
<!-- Generator: Adobe Illustrator 19.0.0, SVG Export Plug-In . SVG Version: 6.00 Build 0)  -->
<svg xmlns="http://www.w3.org/2000/svg" xmlns:xlink="http://www.w3.org/1999/xlink" version="1.1" id="Capa_1" x="0px" y="0px" viewBox="0 0 512.003 512.003" style="enable-background:new 0 0 512.003 512.003;" xml:space="preserve" width="512px" height="512px">
<g>
	<g>
		<g>
			<path d="M63.056,96.826c-7.171-6.844-18.454-6.844-25.625,0L5.297,128.951c-7.063,7.084-7.063,18.546,0,25.629l5.112,5.112     l57.759-57.754L63.056,96.826z" fill="#cb2e0f"/>

				<rect x="96.271" y="211.92" transform="matrix(0.7071 -0.7071 0.7071 0.7071 -121.5101 163.9102)" width="81.682" height="33.435" fill="#cb2e0f"/>
			<polygon points="190.722,224.492 132.958,282.247 156.519,305.808 214.357,248.126    " fill="#cb2e0f"/>
			<polygon points="227.285,261.054 169.447,318.736 193.264,342.544 251.029,284.789    " fill="#cb2e0f"/>

				<rect x="59.736" y="175.443" transform="matrix(0.7071 -0.7071 0.7071 0.7071 -106.3726 127.3769)" width="81.683" height="33.308" fill="#cb2e0f"/>

				<rect x="23.196" y="138.845" transform="matrix(0.7071 -0.7071 0.7071 0.7071 -91.2415 90.8404)" width="81.683" height="33.436" fill="#cb2e0f"/>
			<polygon points="394.562,428.332 394.535,428.313 394.517,428.286 373.671,407.431 315.906,465.186 339.55,488.83      397.314,431.074    " fill="#cb2e0f"/>
			<path d="M486.047,105.786C438.574,35.652,370.368,0.089,283.333,0.089c-101.113,0-185.134,65.07-207.29,83.867l324.964,324.959     l19.594-19.594c0.042-15.832-1.324-49.826-8.375-65.478c-5.865-12.687-14.327-24.003-24.839-33.214     c-3.928-3.176-4.537-8.934-1.362-12.862c3.176-3.928,8.934-4.537,12.862-1.362c12.732,11.023,22.966,24.635,30.018,39.929     c9.798,21.759,10.056,64.695,9.974,74.861c4.143,7.669,14.427,22.966,25.919,25.777c5.059,1.098,10.339-0.259,14.241-3.661     c22.705-16.813,32.866-102.835,32.866-180.629l0.054-14.652C512.208,170.71,512.342,144.647,486.047,105.786z M392.136,53.312     c-1.078,2.173-2.977,3.827-5.277,4.597c-2.3,0.77-4.813,0.592-6.982-0.495C349.81,42.992,316.76,35.88,283.422,36.661     c-36.555,0.507-72.648,8.236-106.205,22.741c-3.018,1.265-6.482,0.82-9.083-1.167c-2.601-1.986-3.941-5.212-3.515-8.456     c0.426-3.245,2.554-6.014,5.58-7.261c35.78-15.435,74.259-23.641,113.223-24.143c36.161-0.68,71.982,7.084,104.616,22.674     c2.17,1.082,3.822,2.982,4.59,5.282C393.397,48.632,393.22,51.143,392.136,53.312z" fill="#cb2e0f"/>

				<rect x="206.077" y="321.729" transform="matrix(0.7071 -0.7071 0.7071 0.7071 -166.9956 273.7144)" width="81.683" height="33.436" fill="#cb2e0f"/>
			<path d="M410.241,444.007l-57.759,57.754l5.02,5.02c7.171,6.844,18.454,6.844,25.625,0l32.134-32.125     c7.062-7.083,7.062-18.546,0-25.629L410.241,444.007z" fill="#cb2e0f"/>

				<rect x="242.647" y="358.293" transform="matrix(0.7071 -0.7071 0.7071 0.7071 -182.1389 310.2818)" width="81.683" height="33.436" fill="#cb2e0f"/>

				<rect x="279.223" y="394.869" transform="matrix(0.7071 -0.7071 0.7071 0.7071 -197.2889 346.8518)" width="81.682" height="33.435" fill="#cb2e0f"/>
		</g>
	</g>
</g>
<g>
</g>
<g>
</g>
<g>
</g>
<g>
</g>
<g>
</g>
<g>
</g>
<g>
</g>
<g>
</g>
<g>
</g>
<g>
</g>
<g>
</g>
<g>
</g>
<g>
</g>
<g>
</g>
<g>
</g>
</svg>
